<?xml version="1.0" standalone="no"?>
<!DOCTYPE svg PUBLIC "-//W3C//DTD SVG 20010904//EN"
 "http://www.w3.org/TR/2001/REC-SVG-20010904/DTD/svg10.dtd">
<svg version="1.0" xmlns="http://www.w3.org/2000/svg"
 width="512.000000pt" height="512.000000pt" viewBox="0 0 512.000000 512.000000"
 preserveAspectRatio="xMidYMid meet">

<g transform="translate(0.000000,512.000000) scale(0.100000,-0.100000)"
fill="#000000" stroke="none">
<path d="M2380 5114 c-19 -2 -78 -9 -131 -14 -126 -14 -309 -52 -434 -91 -678
-211 -1231 -679 -1544 -1310 -361 -726 -362 -1551 0 -2278 283 -570 767 -1013
1361 -1246 672 -262 1417 -228 2067 96 262 130 451 266 659 472 403 399 650
890 738 1467 22 141 25 516 6 660 -39 292 -118 554 -246 815 -134 273 -283
480 -498 692 -212 211 -399 344 -673 478 -257 127 -526 209 -805 245 -88 12
-438 21 -500 14z m335 -214 c745 -51 1410 -442 1818 -1070 496 -765 496 -1775
0 -2540 -163 -251 -374 -470 -621 -647 -767 -548 -1831 -571 -2622 -56 -333
218 -616 525 -803 873 -245 454 -329 1010 -232 1532 192 1040 1081 1836 2130
1908 161 11 177 11 330 0z"/>
<path d="M2380 4793 c-25 -2 -92 -10 -150 -19 -1017 -150 -1806 -985 -1900
-2009 -95 -1033 538 -2001 1520 -2328 822 -274 1719 -54 2321 570 581 602 777
1469 512 2263 -324 973 -1273 1600 -2303 1523z m465 -229 c355 -49 706 -201
985 -427 41 -33 77 -62 80 -64 2 -2 -104 -112 -235 -243 l-240 -240 -13 62
c-20 100 -83 220 -149 287 -85 84 -137 106 -248 106 -75 0 -98 -4 -139 -24
-108 -53 -211 -192 -252 -341 -25 -92 -29 -252 -10 -350 23 -113 82 -234 147
-301 l51 -52 -82 -82 -82 -82 -132 -6 c-160 -6 -253 -29 -391 -97 -264 -129
-468 -369 -558 -655 -31 -98 -44 -171 -53 -291 l-6 -92 -234 -233 c-128 -128
-235 -231 -237 -229 -2 3 -31 39 -64 80 -290 358 -445 800 -445 1270 0 548
205 1043 592 1430 455 455 1071 661 1715 574z m1291 -732 c296 -371 446 -799
446 -1272 0 -547 -205 -1044 -592 -1430 -387 -387 -882 -592 -1430 -592 -470
0 -912 155 -1270 445 -41 33 -77 62 -80 64 -2 2 72 80 165 173 l169 170 26
-73 c51 -145 124 -207 243 -207 77 0 140 22 337 115 229 109 297 130 420 129
114 -1 205 -29 425 -128 170 -78 230 -96 309 -96 199 1 288 175 289 560 0 227
-27 348 -119 533 -104 210 -292 395 -499 493 -33 16 -62 30 -64 32 -3 1 31 38
74 82 64 65 89 83 130 95 111 32 200 119 263 255 32 71 51 92 360 403 180 180
329 327 332 326 3 0 33 -35 66 -77z m-1062 -6 c86 -36 150 -184 151 -348 l0
-98 -120 -120 c-66 -66 -125 -120 -130 -120 -20 0 -76 63 -102 113 -13 27 -31
82 -40 121 -37 175 31 396 139 449 41 20 59 21 102 3z m-974 -1571 c-184 -184
-335 -333 -337 -332 -1 2 6 30 16 63 74 239 242 435 462 538 59 28 153 61 189
65 3 1 -146 -150 -330 -334z m795 263 c222 -112 384 -311 457 -565 21 -70 23
-99 22 -278 0 -170 -3 -209 -20 -259 -10 -32 -27 -64 -36 -70 -22 -14 -92 10
-304 103 -199 87 -280 110 -409 118 -166 10 -310 -29 -550 -150 -106 -53 -215
-97 -241 -97 -24 0 -52 76 -64 175 l-11 89 497 497 497 497 51 -15 c28 -8 78
-29 111 -45z"/>
<path d="M1994 4036 c-82 -27 -157 -91 -216 -186 -187 -300 -94 -773 177 -906
51 -25 72 -29 140 -29 68 0 89 4 138 29 115 56 213 189 254 346 24 91 24 292
0 380 -44 163 -139 294 -252 349 -60 30 -178 38 -241 17z m175 -226 c90 -63
146 -253 122 -411 -21 -133 -90 -244 -168 -270 -53 -17 -118 20 -161 91 -49
81 -66 150 -66 260 -1 251 142 424 273 330z"/>
<path d="M1209 3411 c-186 -73 -301 -284 -301 -551 1 -201 60 -359 177 -468
84 -78 130 -97 235 -97 74 0 92 4 138 28 174 91 273 287 274 537 0 130 -20
219 -73 327 -96 195 -285 288 -450 224z m148 -202 c93 -35 163 -185 163 -349
0 -220 -124 -397 -243 -346 -64 27 -126 122 -148 224 -17 83 -7 243 20 313 25
65 82 136 125 155 38 16 47 17 83 3z"/>
<path d="M3682 3409 c-83 -33 -171 -122 -221 -222 -51 -104 -72 -196 -72 -319
-1 -254 98 -453 273 -545 46 -24 64 -28 138 -28 111 0 160 22 249 112 74 76
109 139 142 259 25 92 30 265 10 354 -40 175 -130 308 -252 375 -73 39 -188
45 -267 14z m167 -204 c43 -22 98 -91 123 -154 19 -48 22 -75 22 -191 0 -116
-3 -143 -22 -191 -27 -67 -84 -137 -128 -155 -120 -50 -244 126 -244 346 0
226 131 407 249 345z"/>
</g>
</svg>
