<?xml version="1.0" standalone="no"?>
<!DOCTYPE svg PUBLIC "-//W3C//DTD SVG 20010904//EN"
 "http://www.w3.org/TR/2001/REC-SVG-20010904/DTD/svg10.dtd">
<svg version="1.0" xmlns="http://www.w3.org/2000/svg"
 width="512.000000pt" height="512.000000pt" viewBox="0 0 512.000000 512.000000"
 preserveAspectRatio="xMidYMid meet">

<g transform="translate(0.000000,512.000000) scale(0.100000,-0.100000)"
fill="#000000" stroke="none">
<path d="M1249 5110 c-118 -15 -211 -95 -248 -215 -94 -305 -49 -673 116 -949
l36 -58 -31 -87 c-20 -58 -34 -85 -44 -82 -136 40 -208 38 -303 -8 -76 -38
-103 -66 -378 -395 -266 -316 -281 -341 -281 -471 -1 -76 3 -98 25 -145 14
-30 38 -70 54 -88 15 -19 192 -172 393 -340 201 -169 379 -319 396 -333 29
-25 31 -30 31 -101 1 -95 34 -167 105 -231 l49 -44 -67 -18 c-106 -28 -199
-81 -272 -155 -69 -70 -124 -166 -136 -236 -12 -76 29 -167 95 -211 115 -77
249 -41 321 86 39 70 73 90 159 98 77 7 169 -17 301 -77 178 -81 300 -98 442
-61 72 18 68 20 133 -38 l38 -33 -12 -62 c-7 -33 -33 -123 -57 -199 -65 -202
-58 -294 28 -392 93 -106 229 -137 361 -81 80 33 142 113 181 234 10 28 20 52
22 52 3 0 66 -51 140 -114 145 -121 226 -172 326 -204 87 -28 118 -34 586 -98
466 -65 464 -65 535 7 l39 39 299 0 c182 0 308 4 325 10 55 21 69 68 33 114
l-20 26 -316 2 -315 3 -137 420 c-139 426 -179 524 -248 605 l-36 42 22 36
c63 104 122 262 137 367 5 36 17 61 40 89 102 119 96 300 -14 415 l-41 43 77
35 c273 124 484 322 597 558 82 171 110 318 102 536 -6 166 -21 253 -69 393
l-31 89 51 96 c117 223 167 462 142 681 -12 109 -37 230 -57 278 -19 45 -89
119 -135 143 -76 39 -251 49 -417 24 -218 -33 -409 -116 -578 -251 l-52 -42
-78 24 c-216 68 -426 98 -678 98 -241 -1 -436 -29 -646 -94 l-92 -29 -46 38
c-244 201 -591 301 -902 261z m361 -165 c87 -18 188 -54 261 -91 64 -32 159
-94 159 -104 0 -4 -19 -16 -42 -26 -23 -10 -83 -43 -133 -72 -102 -61 -80 -64
-209 26 -102 70 -229 131 -371 177 l-117 38 30 30 c17 16 47 33 69 38 57 12
268 3 353 -16z m3055 3 c17 -9 38 -25 48 -36 18 -20 18 -20 -40 -36 -172 -48
-365 -141 -488 -236 -29 -22 -56 -40 -60 -40 -5 0 -40 20 -79 44 -39 24 -97
57 -128 72 -32 16 -58 31 -58 35 0 25 228 143 334 174 157 46 404 57 471 23z
m-1549 -168 c475 -39 894 -227 1195 -537 251 -258 379 -558 379 -887 0 -67 -5
-149 -11 -182 -57 -316 -243 -550 -570 -714 -224 -113 -463 -177 -802 -214
-94 -10 -133 -19 -148 -32 -26 -24 -25 -78 2 -105 20 -20 28 -21 117 -15 53 4
94 4 91 1 -3 -3 -49 -12 -102 -19 -53 -8 -113 -23 -133 -32 -34 -16 -36 -16
-60 2 -99 76 -932 791 -930 798 1 5 35 22 75 37 40 15 79 36 87 46 34 45 0
113 -56 113 -34 0 -119 -29 -188 -64 l-53 -27 -95 82 c-73 62 -92 84 -81 90
19 11 249 27 312 22 40 -4 56 0 78 17 36 28 37 77 3 109 -23 22 -32 23 -159
22 -118 0 -220 -9 -295 -26 -12 -3 -31 -19 -40 -35 l-18 -29 -245 205 c-201
169 -243 208 -241 227 2 12 15 55 28 96 204 613 880 1046 1655 1060 42 0 134
-4 205 -9z m-1862 -75 c57 -19 139 -53 182 -77 92 -48 194 -116 193 -126 0 -4
-37 -38 -81 -76 -89 -76 -207 -214 -269 -312 -23 -35 -43 -64 -46 -64 -12 0
-77 162 -100 249 -22 80 -26 120 -27 241 -1 154 6 200 29 200 8 0 62 -16 119
-35z m3520 8 c33 -176 -1 -416 -84 -600 -17 -36 -33 -64 -35 -61 -3 3 -29 39
-58 81 -69 101 -191 239 -271 307 -36 30 -65 58 -65 62 -1 11 91 74 172 118
76 41 285 120 319 120 10 0 18 -11 22 -27z m-3782 -1125 c37 -11 253 -180 253
-197 0 -12 -714 -861 -724 -861 -21 0 -220 182 -237 217 -24 48 -25 145 -2
188 24 44 492 599 525 622 59 42 118 51 185 31z m512 -408 c70 -57 126 -107
126 -111 0 -9 -719 -864 -725 -862 -4 1 -64 50 -136 108 -77 65 -126 112 -122
119 22 35 717 856 724 854 4 -2 64 -50 133 -108z m861 -729 c332 -282 609
-519 616 -527 8 -10 7 -24 -6 -59 -24 -61 -17 -173 14 -234 33 -63 103 -126
167 -150 66 -25 142 -27 254 -5 70 13 85 13 99 1 192 -162 272 -231 298 -259
l32 -33 -126 -150 c-69 -83 -136 -163 -149 -178 l-24 -28 -1027 862 c-566 474
-1039 872 -1052 885 l-24 23 154 185 c85 102 157 184 161 183 5 -1 280 -233
613 -516z m-974 -13 c53 -45 60 -58 29 -58 -33 0 -112 -42 -150 -80 -19 -19
-64 -77 -100 -129 -36 -51 -69 -99 -75 -107 -8 -11 -16 -8 -42 14 l-32 27 157
187 c86 103 158 188 160 188 2 0 26 -19 53 -42z m186 -234 c47 -36 66 -78 61
-133 -5 -43 -60 -138 -194 -329 -26 -37 -75 -62 -122 -62 -73 0 -129 42 -152
114 -17 53 -3 96 73 218 74 118 139 195 181 214 43 20 111 10 153 -22z m2379
-50 c92 -44 113 -175 40 -247 -137 -138 -525 -297 -719 -297 -99 0 -167 66
-167 160 0 90 58 143 168 155 136 14 348 98 477 190 33 23 67 45 75 48 30 11
93 7 126 -9z m-1341 -744 c429 -359 791 -663 804 -676 l24 -23 -31 -36 c-42
-47 -44 -94 -6 -124 35 -27 56 -26 92 4 17 14 117 129 223 255 106 127 195
230 199 230 6 0 140 -408 140 -428 0 -6 -73 -98 -162 -204 -89 -106 -162 -194
-163 -196 -3 -3 -449 58 -453 63 -1 1 7 18 18 38 24 41 19 79 -13 102 -38 27
-70 18 -117 -30 -24 -25 -49 -45 -55 -45 -18 0 -125 89 -848 704 l-705 600 40
65 c23 36 64 100 93 141 71 101 83 129 91 195 l7 56 21 -19 c12 -11 372 -313
801 -672z m1281 213 c-9 -37 -83 -193 -92 -193 -8 0 -133 103 -133 110 -1 5
208 107 223 109 4 1 5 -11 2 -26z m-2459 -218 c159 -33 285 -94 406 -196 48
-41 87 -77 87 -81 0 -11 -97 -9 -150 3 -25 5 -93 32 -152 60 -189 87 -350 109
-479 65 l-47 -16 -62 42 -62 41 23 18 c25 19 146 65 189 72 60 10 184 6 247
-8z m-480 -246 c41 -25 41 -42 3 -81 -25 -24 -36 -29 -58 -23 -54 13 -71 53
-48 110 14 33 17 34 43 24 15 -6 42 -19 60 -30z m1480 -456 c63 -54 121 -103
129 -109 11 -9 9 -25 -16 -100 -17 -49 -39 -103 -50 -121 -54 -90 -195 -86
-257 7 -31 45 -29 97 5 201 16 46 37 114 47 152 10 37 20 67 23 67 2 0 56 -44
119 -97z m1729 -405 c52 -158 53 -157 -122 -133 -71 10 -130 19 -132 21 -2 1
43 57 99 124 56 66 105 117 109 113 4 -4 25 -61 46 -125z"/>
<path d="M2433 3612 c-40 -6 -53 -39 -53 -133 0 -83 1 -89 26 -108 34 -26 64
-27 92 -1 26 24 36 73 30 145 -6 75 -37 106 -95 97z"/>
<path d="M3828 3606 c-34 -17 -48 -54 -48 -124 0 -116 55 -165 124 -111 25 19
26 25 26 108 0 96 -12 125 -54 133 -14 3 -36 0 -48 -6z"/>
<path d="M2920 3472 c-55 -44 -9 -127 100 -180 46 -23 68 -27 135 -27 93 1
149 22 214 80 34 31 41 43 41 76 0 67 -71 92 -128 44 -37 -31 -93 -55 -127
-55 -34 0 -90 24 -127 55 -35 30 -77 32 -108 7z"/>
<path d="M4158 3290 c-71 -6 -98 -27 -98 -74 0 -25 7 -40 25 -54 21 -17 41
-20 140 -20 63 0 160 -5 215 -12 100 -13 100 -13 125 10 32 30 33 73 2 104
-19 19 -41 25 -123 34 -132 15 -217 18 -286 12z"/>
<path d="M4010 3020 c-23 -23 -26 -68 -7 -93 6 -9 51 -32 99 -51 101 -41 168
-74 235 -116 80 -51 143 -33 145 41 1 43 -35 73 -175 145 -182 93 -259 112
-297 74z"/>
</g>
</svg>
